<svg width="193" height="197" viewBox="0 0 193 197" fill="none" xmlns="http://www.w3.org/2000/svg">
<path opacity="0.12" d="M96.5 193C149.795 193 193 149.795 193 96.5C193 43.2045 149.795 0 96.5 0C43.2045 0 0 43.2045 0 96.5C0 149.795 43.2045 193 96.5 193Z" fill="#402F75"/>
<g filter="url(#filter0_d_2213_5784)">
<mask id="mask0_2213_5784" style="mask-type:alpha" maskUnits="userSpaceOnUse" x="0" y="0" width="193" height="193">
<path d="M96.5 193C149.795 193 193 149.795 193 96.5C193 43.2045 149.795 0 96.5 0C43.2045 0 0 43.2045 0 96.5C0 149.795 43.2045 193 96.5 193Z" fill="black"/>
</mask>
<g mask="url(#mask0_2213_5784)">
<path d="M151.827 55.3267H41.1736C37.6205 55.3267 34.7402 58.207 34.7402 61.76V196.86C34.7402 200.413 37.6205 203.293 41.1736 203.293H151.827C155.38 203.293 158.26 200.413 158.26 196.86V61.76C158.26 58.207 155.38 55.3267 151.827 55.3267Z" fill="white"/>
</g>
</g>
<path opacity="0.15" d="M84.9208 68.1933H51.4674C49.3356 68.1933 47.6074 69.9215 47.6074 72.0533C47.6074 74.1851 49.3356 75.9133 51.4674 75.9133H84.9208C87.0526 75.9133 88.7808 74.1851 88.7808 72.0533C88.7808 69.9215 87.0526 68.1933 84.9208 68.1933Z" fill="#402F75"/>
<path opacity="0.15" d="M84.9208 122.233H51.4674C49.3356 122.233 47.6074 123.962 47.6074 126.093C47.6074 128.225 49.3356 129.953 51.4674 129.953H84.9208C87.0526 129.953 88.7808 128.225 88.7808 126.093C88.7808 123.962 87.0526 122.233 84.9208 122.233Z" fill="#402F75"/>
<path d="M138.959 87.4933H54.0392C51.1968 87.4933 48.8926 89.7976 48.8926 92.64V105.507C48.8926 108.349 51.1968 110.653 54.0392 110.653H138.959C141.802 110.653 144.106 108.349 144.106 105.507V92.64C144.106 89.7976 141.802 87.4933 138.959 87.4933Z" stroke="#402F75" stroke-width="2.57333"/>
<path opacity="0.15" d="M138.961 140.247H54.0408C50.4877 140.247 47.6074 143.127 47.6074 146.68V156.973C47.6074 160.526 50.4877 163.407 54.0408 163.407H138.961C142.514 163.407 145.394 160.526 145.394 156.973V146.68C145.394 143.127 142.514 140.247 138.961 140.247Z" fill="#402F75"/>
<path opacity="0.22" d="M110.654 113.227C114.207 113.227 117.087 110.346 117.087 106.793C117.087 103.24 114.207 100.36 110.654 100.36C107.101 100.36 104.221 103.24 104.221 106.793C104.221 110.346 107.101 113.227 110.654 113.227Z" fill="#FBBB14"/>
<path d="M115.68 134.289C114.651 134.289 113.69 134.289 112.815 134.234C111.737 134.161 110.701 133.792 109.819 133.168C108.937 132.544 108.245 131.689 107.818 130.697L102.389 119.969C101.991 119.505 101.792 118.903 101.836 118.294C101.88 117.684 102.163 117.117 102.623 116.715C103.001 116.412 103.471 116.248 103.955 116.253C104.311 116.263 104.661 116.351 104.98 116.509C105.299 116.668 105.58 116.894 105.804 117.172L108.269 120.536L108.307 120.58V107.797C108.307 107.163 108.558 106.555 109.007 106.106C109.455 105.658 110.064 105.406 110.698 105.406C111.332 105.406 111.94 105.658 112.389 106.106C112.837 106.555 113.089 107.163 113.089 107.797V116.16C113.061 115.853 113.098 115.542 113.197 115.25C113.295 114.957 113.454 114.688 113.662 114.46C113.871 114.231 114.125 114.049 114.407 113.925C114.69 113.8 114.996 113.736 115.305 113.736C115.614 113.736 115.919 113.8 116.202 113.925C116.485 114.049 116.739 114.231 116.947 114.46C117.155 114.688 117.314 114.957 117.413 115.25C117.511 115.542 117.548 115.853 117.52 116.16V117.904C117.493 117.596 117.529 117.286 117.628 116.993C117.727 116.7 117.885 116.431 118.094 116.203C118.302 115.975 118.556 115.793 118.839 115.668C119.121 115.543 119.427 115.479 119.736 115.479C120.045 115.479 120.351 115.543 120.633 115.668C120.916 115.793 121.17 115.975 121.378 116.203C121.587 116.431 121.745 116.7 121.844 116.993C121.943 117.286 121.979 117.596 121.952 117.904V119.247C121.924 118.939 121.96 118.629 122.059 118.336C122.158 118.043 122.317 117.774 122.525 117.546C122.733 117.318 122.987 117.136 123.27 117.011C123.553 116.887 123.858 116.822 124.167 116.822C124.476 116.822 124.782 116.887 125.065 117.011C125.347 117.136 125.601 117.318 125.809 117.546C126.018 117.774 126.177 118.043 126.275 118.336C126.374 118.629 126.411 118.939 126.383 119.247V127.401C126.339 129.908 125.206 134.136 121.218 134.136C120.929 134.149 118.476 134.291 115.686 134.291L115.68 134.289Z" fill="#FBBB14" stroke="white" stroke-width="1.28667"/>
<defs>
<filter id="filter0_d_2213_5784" x="27.0202" y="43.7467" width="138.96" height="153.113" filterUnits="userSpaceOnUse" color-interpolation-filters="sRGB">
<feFlood flood-opacity="0" result="BackgroundImageFix"/>
<feColorMatrix in="SourceAlpha" type="matrix" values="0 0 0 0 0 0 0 0 0 0 0 0 0 0 0 0 0 0 127 0" result="hardAlpha"/>
<feOffset dy="-3.86"/>
<feGaussianBlur stdDeviation="3.86"/>
<feColorMatrix type="matrix" values="0 0 0 0 0.788235 0 0 0 0 0.803922 0 0 0 0 0.85098 0 0 0 0.349 0"/>
<feBlend mode="normal" in2="BackgroundImageFix" result="effect1_dropShadow_2213_5784"/>
<feBlend mode="normal" in="SourceGraphic" in2="effect1_dropShadow_2213_5784" result="shape"/>
</filter>
</defs>
</svg>
