<svg width="213" height="213" viewBox="0 0 213 213" fill="none" xmlns="http://www.w3.org/2000/svg">
<path d="M119.326 13.1231C107.049 11.3922 94.5509 12.1071 82.5516 15.2265L84.6396 23.2583C95.5796 20.4143 106.974 19.7625 118.167 21.3406L119.326 13.1231Z" fill="#FBBB14"/>
<path d="M75.1612 17.4758C63.4586 21.57 52.6814 27.9388 43.4505 36.2155L48.9905 42.3943C57.4065 34.8483 67.2322 29.0418 77.9017 25.309L75.1612 17.4758Z" fill="#402F75"/>
<path d="M38.8552 40.6255C30.2059 49.5084 23.3993 60.0145 18.8273 71.5389L26.5412 74.5991C30.7096 64.0922 36.9153 54.5136 44.801 46.415L38.8552 40.6255Z" fill="#FBBB14"/>
<path d="M16.3641 78.543C12.7159 90.3922 11.4478 102.846 12.6329 115.188L20.8937 114.394C19.8132 103.142 20.9694 91.7881 24.2954 80.9849L16.3641 78.543Z" fill="#402F75"/>
<path d="M13.4604 121.529C15.4819 133.761 19.9032 145.473 26.4698 155.989L33.509 151.594C27.5221 142.006 23.4911 131.328 21.6481 120.176L13.4604 121.529Z" fill="#FBBB14"/>
<path d="M29.3687 160.356C36.5113 170.49 45.5881 179.111 56.0763 185.722L60.5017 178.702C50.9394 172.674 42.664 164.814 36.152 155.575L29.3687 160.356Z" fill="#402F75"/>
<path d="M60.9569 188.597C71.8243 194.565 83.765 198.323 96.0912 199.657L96.9839 191.406C85.7459 190.191 74.8594 186.764 64.9514 181.323L60.9569 188.597Z" fill="#FBBB14"/>
<path d="M101.222 200.07C113.602 200.727 125.991 198.929 137.673 194.778L134.895 186.958C124.244 190.742 112.949 192.382 101.661 191.783L101.222 200.07Z" fill="#402F75"/>
<path d="M141.082 193.492C152.595 188.891 163.085 182.059 171.946 173.387L166.142 167.456C158.063 175.362 148.5 181.591 138.003 185.785L141.082 193.492Z" fill="#FBBB14"/>
<path d="M174.078 171.232C182.655 162.28 189.377 151.719 193.855 140.158L186.117 137.16C182.034 147.701 175.906 157.329 168.086 165.491L174.078 171.232Z" fill="#402F75"/>
<path d="M195.311 136.129C199.259 124.376 200.842 111.959 199.97 99.5912L191.691 100.175C192.487 111.45 191.043 122.772 187.444 133.487L195.311 136.129Z" fill="#FBBB14"/>
<path d="M199.59 95.491C198.177 83.1736 194.342 71.2573 188.304 60.4284L181.056 64.4696C186.561 74.3424 190.057 85.2067 191.345 96.4367L199.59 95.491Z" fill="#402F75"/>
<path d="M185.631 55.9316C179 45.4554 170.363 36.3943 160.216 29.2702L155.447 36.0622C164.698 42.5573 172.573 50.8184 178.618 60.3698L185.631 55.9316Z" fill="#FBBB14"/>
<path d="M157.328 27.3215C146.924 20.5783 135.288 15.9599 123.092 13.7323L121.601 21.896C132.721 23.927 143.329 28.1377 152.814 34.2855L157.328 27.3215Z" fill="#402F75"/>
</svg>
